<mxfile host="app.diagrams.net" agent="Mozilla/5.0 (Windows NT 10.0; Win64; x64; rv:131.0) Gecko/20100101 Firefox/131.0" version="24.8.2">
  <diagram id="C5RBs43oDa-KdzZeNtuy" name="Page-1">
    <mxGraphModel dx="2048" dy="808" grid="1" gridSize="10" guides="1" tooltips="1" connect="1" arrows="1" fold="1" page="1" pageScale="1" pageWidth="827" pageHeight="1169" math="0" shadow="0">
      <root>
        <mxCell id="WIyWlLk6GJQsqaUBKTNV-0" />
        <mxCell id="WIyWlLk6GJQsqaUBKTNV-1" parent="WIyWlLk6GJQsqaUBKTNV-0" />
        <mxCell id="zkfFHV4jXpPFQw0GAbJ--0" value="User" style="swimlane;fontStyle=2;align=center;verticalAlign=top;childLayout=stackLayout;horizontal=1;startSize=26;horizontalStack=0;resizeParent=1;resizeLast=0;collapsible=1;marginBottom=0;rounded=0;shadow=0;strokeWidth=1;" parent="WIyWlLk6GJQsqaUBKTNV-1" vertex="1">
          <mxGeometry x="-550" y="70" width="160" height="220" as="geometry">
            <mxRectangle x="220" y="120" width="160" height="26" as="alternateBounds" />
          </mxGeometry>
        </mxCell>
        <mxCell id="zkfFHV4jXpPFQw0GAbJ--1" value="username" style="text;align=left;verticalAlign=top;spacingLeft=4;spacingRight=4;overflow=hidden;rotatable=0;points=[[0,0.5],[1,0.5]];portConstraint=eastwest;" parent="zkfFHV4jXpPFQw0GAbJ--0" vertex="1">
          <mxGeometry y="26" width="160" height="26" as="geometry" />
        </mxCell>
        <mxCell id="zkfFHV4jXpPFQw0GAbJ--2" value="points" style="text;align=left;verticalAlign=top;spacingLeft=4;spacingRight=4;overflow=hidden;rotatable=0;points=[[0,0.5],[1,0.5]];portConstraint=eastwest;rounded=0;shadow=0;html=0;" parent="zkfFHV4jXpPFQw0GAbJ--0" vertex="1">
          <mxGeometry y="52" width="160" height="26" as="geometry" />
        </mxCell>
        <mxCell id="zkfFHV4jXpPFQw0GAbJ--3" value="score" style="text;align=left;verticalAlign=top;spacingLeft=4;spacingRight=4;overflow=hidden;rotatable=0;points=[[0,0.5],[1,0.5]];portConstraint=eastwest;rounded=0;shadow=0;html=0;" parent="zkfFHV4jXpPFQw0GAbJ--0" vertex="1">
          <mxGeometry y="78" width="160" height="26" as="geometry" />
        </mxCell>
        <mxCell id="zkfFHV4jXpPFQw0GAbJ--4" value="" style="line;html=1;strokeWidth=1;align=left;verticalAlign=middle;spacingTop=-1;spacingLeft=3;spacingRight=3;rotatable=0;labelPosition=right;points=[];portConstraint=eastwest;" parent="zkfFHV4jXpPFQw0GAbJ--0" vertex="1">
          <mxGeometry y="104" width="160" height="8" as="geometry" />
        </mxCell>
        <mxCell id="zkfFHV4jXpPFQw0GAbJ--5" value="SearchGame()&#xa;&#xa;ViewStats()&#xa;&#xa;UpgradeWeapon()&#xa;&#xa;" style="text;align=left;verticalAlign=top;spacingLeft=4;spacingRight=4;overflow=hidden;rotatable=0;points=[[0,0.5],[1,0.5]];portConstraint=eastwest;" parent="zkfFHV4jXpPFQw0GAbJ--0" vertex="1">
          <mxGeometry y="112" width="160" height="98" as="geometry" />
        </mxCell>
        <mxCell id="63MCfJi94wHpFgdNLO2f-10" value="Game" style="swimlane;whiteSpace=wrap;html=1;startSize=20;" parent="WIyWlLk6GJQsqaUBKTNV-1" vertex="1">
          <mxGeometry x="-240" y="390" width="200" height="215" as="geometry">
            <mxRectangle x="300" y="60" width="70" height="30" as="alternateBounds" />
          </mxGeometry>
        </mxCell>
        <mxCell id="63MCfJi94wHpFgdNLO2f-11" value="array&amp;lt;Player&amp;gt;[4]" style="text;html=1;align=left;verticalAlign=middle;whiteSpace=wrap;rounded=0;" parent="63MCfJi94wHpFgdNLO2f-10" vertex="1">
          <mxGeometry y="22" width="200" height="30" as="geometry" />
        </mxCell>
        <mxCell id="63MCfJi94wHpFgdNLO2f-16" value="map&amp;lt;Tile&amp;gt;[m][n]" style="text;html=1;align=left;verticalAlign=middle;whiteSpace=wrap;rounded=0;" parent="63MCfJi94wHpFgdNLO2f-10" vertex="1">
          <mxGeometry y="52" width="200" height="30" as="geometry" />
        </mxCell>
        <mxCell id="63MCfJi94wHpFgdNLO2f-32" value="" style="line;strokeWidth=2;html=1;" parent="63MCfJi94wHpFgdNLO2f-10" vertex="1">
          <mxGeometry y="115" width="200" height="10" as="geometry" />
        </mxCell>
        <mxCell id="63MCfJi94wHpFgdNLO2f-34" value="Start()" style="text;html=1;align=left;verticalAlign=middle;whiteSpace=wrap;rounded=0;" parent="63MCfJi94wHpFgdNLO2f-10" vertex="1">
          <mxGeometry y="125" width="200" height="30" as="geometry" />
        </mxCell>
        <mxCell id="63MCfJi94wHpFgdNLO2f-35" value="End()" style="text;html=1;align=left;verticalAlign=middle;whiteSpace=wrap;rounded=0;" parent="63MCfJi94wHpFgdNLO2f-10" vertex="1">
          <mxGeometry y="190" width="200" height="25" as="geometry" />
        </mxCell>
        <mxCell id="o8U2oxByxxinAiB_X0xn-19" value="GenerateMap()" style="text;html=1;align=left;verticalAlign=middle;whiteSpace=wrap;rounded=0;" parent="63MCfJi94wHpFgdNLO2f-10" vertex="1">
          <mxGeometry y="155" width="200" height="30" as="geometry" />
        </mxCell>
        <mxCell id="o8U2oxByxxinAiB_X0xn-21" style="edgeStyle=orthogonalEdgeStyle;rounded=0;orthogonalLoop=1;jettySize=auto;html=1;entryX=1.013;entryY=0.048;entryDx=0;entryDy=0;entryPerimeter=0;endArrow=diamondThin;endFill=0;endSize=16;" parent="WIyWlLk6GJQsqaUBKTNV-1" source="63MCfJi94wHpFgdNLO2f-23" target="63MCfJi94wHpFgdNLO2f-10" edge="1">
          <mxGeometry relative="1" as="geometry">
            <mxPoint x="260" y="410" as="targetPoint" />
          </mxGeometry>
        </mxCell>
        <mxCell id="63MCfJi94wHpFgdNLO2f-23" value="&lt;span style=&quot;font-weight: normal;&quot;&gt;&lt;i&gt;Tile&lt;/i&gt;&lt;/span&gt;" style="swimlane;whiteSpace=wrap;html=1;startSize=30;" parent="WIyWlLk6GJQsqaUBKTNV-1" vertex="1">
          <mxGeometry x="160" y="550" width="200" height="170" as="geometry">
            <mxRectangle x="70" y="400" width="140" height="30" as="alternateBounds" />
          </mxGeometry>
        </mxCell>
        <mxCell id="63MCfJi94wHpFgdNLO2f-39" value="type" style="text;html=1;align=left;verticalAlign=middle;whiteSpace=wrap;rounded=0;" parent="63MCfJi94wHpFgdNLO2f-23" vertex="1">
          <mxGeometry y="30" width="200" height="30" as="geometry" />
        </mxCell>
        <mxCell id="63MCfJi94wHpFgdNLO2f-40" value="" style="line;strokeWidth=2;html=1;" parent="63MCfJi94wHpFgdNLO2f-23" vertex="1">
          <mxGeometry y="80" width="200" height="10" as="geometry" />
        </mxCell>
        <mxCell id="63MCfJi94wHpFgdNLO2f-42" value="hasBomb" style="text;html=1;align=left;verticalAlign=middle;whiteSpace=wrap;rounded=0;" parent="63MCfJi94wHpFgdNLO2f-23" vertex="1">
          <mxGeometry y="56" width="200" height="30" as="geometry" />
        </mxCell>
        <mxCell id="o8U2oxByxxinAiB_X0xn-9" value="Detonate()" style="text;html=1;align=left;verticalAlign=middle;whiteSpace=wrap;rounded=0;" parent="63MCfJi94wHpFgdNLO2f-23" vertex="1">
          <mxGeometry y="86" width="200" height="30" as="geometry" />
        </mxCell>
        <mxCell id="o8U2oxByxxinAiB_X0xn-22" value="BecomeFree()" style="text;html=1;align=left;verticalAlign=middle;whiteSpace=wrap;rounded=0;" parent="63MCfJi94wHpFgdNLO2f-23" vertex="1">
          <mxGeometry y="110" width="200" height="30" as="geometry" />
        </mxCell>
        <mxCell id="63MCfJi94wHpFgdNLO2f-19" value="&lt;span style=&quot;font-weight: normal;&quot;&gt;&lt;i&gt;Bullet&lt;/i&gt;&lt;/span&gt;" style="swimlane;whiteSpace=wrap;html=1;" parent="WIyWlLk6GJQsqaUBKTNV-1" vertex="1">
          <mxGeometry x="-800" y="420" width="200" height="240" as="geometry" />
        </mxCell>
        <mxCell id="63MCfJi94wHpFgdNLO2f-24" value="direction" style="text;html=1;align=left;verticalAlign=middle;whiteSpace=wrap;rounded=0;" parent="63MCfJi94wHpFgdNLO2f-19" vertex="1">
          <mxGeometry y="24.47368421052631" width="190.47619047619045" height="24.47368421052631" as="geometry" />
        </mxCell>
        <mxCell id="63MCfJi94wHpFgdNLO2f-28" value="" style="line;strokeWidth=2;html=1;" parent="63MCfJi94wHpFgdNLO2f-19" vertex="1">
          <mxGeometry y="160" width="200" height="10" as="geometry" />
        </mxCell>
        <mxCell id="63MCfJi94wHpFgdNLO2f-29" value="CheckCollision()" style="text;html=1;align=left;verticalAlign=middle;whiteSpace=wrap;rounded=0;" parent="63MCfJi94wHpFgdNLO2f-19" vertex="1">
          <mxGeometry y="180" width="200" height="30" as="geometry" />
        </mxCell>
        <mxCell id="63MCfJi94wHpFgdNLO2f-31" value="speed" style="text;html=1;align=left;verticalAlign=middle;whiteSpace=wrap;rounded=0;" parent="63MCfJi94wHpFgdNLO2f-19" vertex="1">
          <mxGeometry y="48.95" width="200" height="30" as="geometry" />
        </mxCell>
        <mxCell id="o8U2oxByxxinAiB_X0xn-5" value="BreakWall()" style="text;html=1;align=left;verticalAlign=middle;whiteSpace=wrap;rounded=0;" parent="63MCfJi94wHpFgdNLO2f-19" vertex="1">
          <mxGeometry y="78.95" width="200" height="30" as="geometry" />
        </mxCell>
        <mxCell id="o8U2oxByxxinAiB_X0xn-6" value="KillPlayer()" style="text;html=1;align=left;verticalAlign=middle;whiteSpace=wrap;rounded=0;" parent="63MCfJi94wHpFgdNLO2f-19" vertex="1">
          <mxGeometry y="105" width="200" height="30" as="geometry" />
        </mxCell>
        <mxCell id="o8U2oxByxxinAiB_X0xn-20" value="CancelBullet()" style="text;html=1;align=left;verticalAlign=middle;whiteSpace=wrap;rounded=0;" parent="63MCfJi94wHpFgdNLO2f-19" vertex="1">
          <mxGeometry y="130" width="200" height="30" as="geometry" />
        </mxCell>
        <mxCell id="63MCfJi94wHpFgdNLO2f-36" value="App" style="swimlane;whiteSpace=wrap;html=1;fontStyle=3" parent="WIyWlLk6GJQsqaUBKTNV-1" vertex="1">
          <mxGeometry x="-240" y="30" width="200" height="280" as="geometry" />
        </mxCell>
        <mxCell id="o8U2oxByxxinAiB_X0xn-10" value="" style="line;strokeWidth=2;html=1;" parent="63MCfJi94wHpFgdNLO2f-36" vertex="1">
          <mxGeometry y="124" width="200" height="10" as="geometry" />
        </mxCell>
        <mxCell id="o8U2oxByxxinAiB_X0xn-11" value="Run()" style="text;html=1;align=left;verticalAlign=middle;whiteSpace=wrap;rounded=0;" parent="63MCfJi94wHpFgdNLO2f-36" vertex="1">
          <mxGeometry y="134" width="200" height="30" as="geometry" />
        </mxCell>
        <mxCell id="o8U2oxByxxinAiB_X0xn-12" value="Close()" style="text;html=1;align=left;verticalAlign=middle;whiteSpace=wrap;rounded=0;" parent="63MCfJi94wHpFgdNLO2f-36" vertex="1">
          <mxGeometry y="164" width="200" height="30" as="geometry" />
        </mxCell>
        <mxCell id="o8U2oxByxxinAiB_X0xn-15" value="GUI" style="text;html=1;align=left;verticalAlign=middle;whiteSpace=wrap;rounded=0;" parent="63MCfJi94wHpFgdNLO2f-36" vertex="1">
          <mxGeometry y="30" width="200" height="30" as="geometry" />
        </mxCell>
        <mxCell id="o8U2oxByxxinAiB_X0xn-16" value="CreateAccount()" style="text;html=1;align=left;verticalAlign=middle;whiteSpace=wrap;rounded=0;" parent="63MCfJi94wHpFgdNLO2f-36" vertex="1">
          <mxGeometry y="194" width="200" height="30" as="geometry" />
        </mxCell>
        <mxCell id="o8U2oxByxxinAiB_X0xn-17" value="Login()" style="text;html=1;align=left;verticalAlign=middle;whiteSpace=wrap;rounded=0;" parent="63MCfJi94wHpFgdNLO2f-36" vertex="1">
          <mxGeometry y="230" width="200" height="30" as="geometry" />
        </mxCell>
        <mxCell id="o8U2oxByxxinAiB_X0xn-0" style="edgeStyle=orthogonalEdgeStyle;rounded=0;orthogonalLoop=1;jettySize=auto;html=1;entryX=0.5;entryY=1;entryDx=0;entryDy=0;" parent="WIyWlLk6GJQsqaUBKTNV-1" source="63MCfJi94wHpFgdNLO2f-37" target="zkfFHV4jXpPFQw0GAbJ--0" edge="1">
          <mxGeometry relative="1" as="geometry" />
        </mxCell>
        <mxCell id="XofezB4uGKU_BaccKpM--0" style="edgeStyle=orthogonalEdgeStyle;rounded=0;orthogonalLoop=1;jettySize=auto;html=1;entryX=0.5;entryY=1;entryDx=0;entryDy=0;endArrow=diamondThin;endFill=1;endSize=16;" parent="WIyWlLk6GJQsqaUBKTNV-1" source="63MCfJi94wHpFgdNLO2f-37" target="63MCfJi94wHpFgdNLO2f-19" edge="1">
          <mxGeometry relative="1" as="geometry" />
        </mxCell>
        <mxCell id="63MCfJi94wHpFgdNLO2f-37" value="&lt;i style=&quot;font-weight: normal;&quot;&gt;Player&lt;/i&gt;" style="swimlane;whiteSpace=wrap;html=1;" parent="WIyWlLk6GJQsqaUBKTNV-1" vertex="1">
          <mxGeometry x="-570" y="670" width="200" height="200" as="geometry" />
        </mxCell>
        <mxCell id="o8U2oxByxxinAiB_X0xn-1" value="tank" style="text;html=1;align=left;verticalAlign=middle;whiteSpace=wrap;rounded=0;" parent="63MCfJi94wHpFgdNLO2f-37" vertex="1">
          <mxGeometry y="30" width="200" height="30" as="geometry" />
        </mxCell>
        <mxCell id="o8U2oxByxxinAiB_X0xn-3" value="" style="line;strokeWidth=2;html=1;" parent="63MCfJi94wHpFgdNLO2f-37" vertex="1">
          <mxGeometry y="110" width="200" height="10" as="geometry" />
        </mxCell>
        <mxCell id="o8U2oxByxxinAiB_X0xn-4" value="Shoot()" style="text;html=1;align=left;verticalAlign=middle;whiteSpace=wrap;rounded=0;" parent="63MCfJi94wHpFgdNLO2f-37" vertex="1">
          <mxGeometry y="120" width="200" height="30" as="geometry" />
        </mxCell>
        <mxCell id="o8U2oxByxxinAiB_X0xn-14" value="Move()" style="text;html=1;align=left;verticalAlign=middle;whiteSpace=wrap;rounded=0;" parent="63MCfJi94wHpFgdNLO2f-37" vertex="1">
          <mxGeometry y="158" width="200" height="30" as="geometry" />
        </mxCell>
        <mxCell id="o8U2oxByxxinAiB_X0xn-13" style="edgeStyle=orthogonalEdgeStyle;rounded=0;orthogonalLoop=1;jettySize=auto;html=1;entryX=0;entryY=0.75;entryDx=0;entryDy=0;endArrow=diamondThin;endFill=0;endSize=16;" parent="WIyWlLk6GJQsqaUBKTNV-1" source="o8U2oxByxxinAiB_X0xn-1" target="63MCfJi94wHpFgdNLO2f-11" edge="1">
          <mxGeometry relative="1" as="geometry" />
        </mxCell>
        <mxCell id="o8U2oxByxxinAiB_X0xn-18" style="edgeStyle=orthogonalEdgeStyle;rounded=0;orthogonalLoop=1;jettySize=auto;html=1;exitX=1;exitY=0.5;exitDx=0;exitDy=0;endArrow=diamondThin;endFill=0;endSize=16;entryX=0.007;entryY=0.079;entryDx=0;entryDy=0;entryPerimeter=0;" parent="WIyWlLk6GJQsqaUBKTNV-1" source="zkfFHV4jXpPFQw0GAbJ--2" target="63MCfJi94wHpFgdNLO2f-36" edge="1">
          <mxGeometry relative="1" as="geometry">
            <mxPoint x="-280" y="115" as="targetPoint" />
          </mxGeometry>
        </mxCell>
      </root>
    </mxGraphModel>
  </diagram>
</mxfile>
